# xmcd
#
# Track frame offsets:
# 150
# 11925
# 21825
# 32175
# 47400
# 56400
# 65175
# 75975
# 87450
# 102675
# 105750
# 118200
# 127200
# 139425
# 151425
# 163350
# 174600
# 184800
# 195900
# 198900
# 214350
# 228450
# 246000
# 257250
# 265500
# 276300
# 283575
# 295725
# 302700
# 311175
# 318825
#
# Disc length: 4352 seconds
#
#
# Revision: 0
# Processed by: cddbd v1.5.2PL0 Copyright (c) Steve Scherf et al.
# Submitted via: FreeRIP 2.942 
#
DISCID=cd10fe1f
DTITLE=Früahdirndl - Früahmusi - Durchs Jahr
DYEAR=2008
DGENRE=Volksmusik
TTITLE0=Tiroler Adler
TTITLE1=Da Winta geht an End scho zua
TTITLE2=Baumoasta Boarisch
TTITLE3=Fangt scho's aern o
TTITLE4=Algunder Landler
TTITLE5=Is denn des net a Leb'n
TTITLE6=Neukirchner Boarischer
TTITLE7=Bald gfrein mi de Ochsn
TTITLE8=Habergaiß Boarischer
TTITLE9=De schnee i, de schiach du
TTITLE10=Oiwei hängt's net auf oa Seit'n
TTITLE11=Almzeit
TTITLE12=Harfenlandler
TTITLE13=Gstanzl
TTITLE14=Franziska Landler
TTITLE15=Bäurin hod Katz verlorn
TTITLE16=Kirnberger Boarisch
TTITLE17=Kimmt schö hoamli de Nacht
TTITLE18=Jodler
TTITLE19=Vogellandler
TTITLE20=Sei gegrüßt zu tausendmalen
TTITLE21=Sonthofer Tafelmusik
TTITLE22=Da Winta schaut eina
TTITLE23=Hochzeitstückl
TTITLE24=Es is Advent
TTITLE25=Menuett
TTITLE26=Als Maria übers Gebirge ging
TTITLE27=Ein Strauß Rosmarin
TTITLE28=Wos duad denn da Ochs im Kripperl drin
TTITLE29=Andachtsweis
TTITLE30=O Jesulein zart
EXTD=
EXTT0=
EXTT1=
EXTT2=
EXTT3=
EXTT4=
EXTT5=
EXTT6=
EXTT7=
EXTT8=
EXTT9=
EXTT10=
EXTT11=
EXTT12=
EXTT13=
EXTT14=
EXTT15=
EXTT16=
EXTT17=
EXTT18=
EXTT19=
EXTT20=
EXTT21=
EXTT22=
EXTT23=
EXTT24=
EXTT25=
EXTT26=
EXTT27=
EXTT28=
EXTT29=
EXTT30=
PLAYORDER=
